<mxfile host="app.diagrams.net" modified="2024-06-02T06:04:44.030Z" agent="Mozilla/5.0 (Windows NT 10.0; Win64; x64) AppleWebKit/537.36 (KHTML, like Gecko) Chrome/124.0.0.0 Safari/537.36" version="24.4.13" etag="Ldb-eVk2QSx8yTdpF6pT" type="github">
  <diagram name="第 1 页" id="TNjUjXeujp-s5shgJAAU">
    <mxGraphModel>
      <root>
        <mxCell id="0" />
        <mxCell id="1" parent="0" />
      </root>
    </mxGraphModel>
  </diagram>
</mxfile>
